<svg xmlns="http://www.w3.org/2000/svg" width="63.821" height="58.116" viewBox="0 0 63.821 58.116">
  <path id="Path_22429" data-name="Path 22429" d="M83.744,49.319V18.392c-5.132,2.615-10.036,4.679-15.162,7.3-4.743,2.427-10.529,4.979-14.212,8.955a19.513,19.513,0,0,0-3.778,5.921,23.865,23.865,0,0,0-1.268,6.987c-.416,4.887-.332,9.824-.332,14.725-.04,1.884-.06,3.77-.115,5.655,0-.112-.221-.214-.3-.259-.263-.154-.535-.291-.811-.422-1.46-.691-2.955-1.3-4.409-2-1.477-.713-2.934-1.471-4.382-2.243s-2.886-1.55-4.326-2.327l-2.216-1.2a17.216,17.216,0,0,1-3.181-2.2A8.5,8.5,0,0,1,26.6,52.86a23.843,23.843,0,0,1-.33-6.366c.076-2.142.1-4.286.134-6.43,0-.112.006-.224.006-.336,0-2.776-.047-5.553-.047-8.329q.01-1.01.01-2.021c.007-.451.023-.9.023-1.354.233.086.466.177.7.268q.943.371,1.877.769,1.378.586,2.734,1.218,1.653.771,3.27,1.615c1.18.618,2.345,1.268,3.484,1.96,1.157.7,2.289,1.447,3.376,2.253A27.091,27.091,0,0,1,44.781,38.6a14.765,14.765,0,0,1,2.193,2.682c.069.112.133.226.2.34A16.95,16.95,0,0,1,50.5,35.358c-.126-.158-.254-.315-.394-.461-.243-.255-.5-.5-.763-.729-.368-.327-.748-.64-1.136-.944-.51-.4-1.032-.786-1.562-1.161a98.942,98.942,0,0,0-12.323-7.295C30.256,22.7,26.108,20.5,21.853,18.841c-.393-.153-1.649-.678-1.649-.678v4.184c0,6.606-.16,13.213-.195,19.82q-.013,2.527-.017,5.053c0,1.66-.064,3.334.006,4.992a14.535,14.535,0,0,0,.835,4.625,7.113,7.113,0,0,0,.571,1.276,13.639,13.639,0,0,0,1.23,1.877q.346.444.731.855a13.455,13.455,0,0,0,2.2,1.88c1.56,1.046,3.122,2.045,4.785,2.938.622.334,1.246.664,1.865,1q.657.357,1.308.72l.161.09q.819.461,1.643.911l.288.159q.822.446,1.65.879c.547.287,1.1.568,1.646.85s1.109.561,1.669.838,1.129.557,1.7.832,1.133.549,1.7.821,1.136.543,1.7.813l.179.085c1.008.472,2.013.951,3.019,1.426.531.251,1.035.548,1.56.811a2.962,2.962,0,0,0,1.585.378,2.343,2.343,0,0,0,.832-.264c.134-.067.264-.14.394-.215s.808-.456,1.012-.581c.1-.061.2-.124.293-.19.04-.026.281-.162.281-.2V63.8c0-3.856-.1-7.72-.182-11.57-.1-4.87.172-9.817,3.688-13.515a23.778,23.778,0,0,1,4.5-3.614,57.792,57.792,0,0,1,5.076-2.807c1.462-.737,2.929-1.484,4.438-2.115,1.484-.619,2.944-1.347,4.446-1.936.073-.029.147-.056.221-.079a2.38,2.38,0,0,1,.753-.135c.085,0,.1.566.1.617.04.563.052,1.129.064,1.694.018.846.027,1.692.032,2.538q.01,1.575.006,3.148c-.008,4.448.015,8.9-.055,13.345a36.108,36.108,0,0,1-.183,4.42,5.651,5.651,0,0,1-1.372,3.174,11.635,11.635,0,0,1-2.756,2.019c-.317.186-.631.378-.946.569q-1.4.843-2.841,1.618-.546.294-1.1.571t-1.116.549c-.37.179-.743.352-1.114.53-.3.145-.605.284-.907.429-.994.483-2.006.925-3.016,1.374-.668.3-1.343.582-2.016.872s-1.345.574-2.017.861c-.164.07-.837.379-1,.449v6.882l2.489-1.252,4.747-2.428c4.042-2.067,8.313-3.955,12.311-6.208,3.209-1.808,6.035-4.636,6.6-8.418a13.224,13.224,0,0,0,.092-1.956C83.764,52.055,83.744,50.689,83.744,49.319Z" transform="translate(-19.963 -18.163)" fill="#0080ff"/>
</svg>
