<svg xmlns="http://www.w3.org/2000/svg" width="18.406" height="21.387" viewBox="0 0 18.406 21.387">
  <path id="Path_45764" data-name="Path 45764" d="M181.385,78.167a.594.594,0,0,0-.529.6v.594h-.111a1.978,1.978,0,0,0-1.958,1.781h-.417a1.976,1.976,0,0,0-1.967,1.967V97.584a1.976,1.976,0,0,0,1.967,1.967h12.691a1.976,1.976,0,0,0,1.967-1.967v-.417a1.98,1.98,0,0,0,1.781-1.967V81.331a1.972,1.972,0,0,0-1.967-1.967h-.705V78.77a.594.594,0,1,0-1.187,0v.594H187.09V78.77a.594.594,0,1,0-1.187,0v.594h-3.859V78.77a.594.594,0,0,0-.659-.6Zm-.64,2.384h12.1a.762.762,0,0,1,.779.779V95.2a.77.77,0,0,1-.779.789h-12.1a.77.77,0,0,1-.779-.789V81.331A.762.762,0,0,1,180.745,80.551Zm-2.375,1.781h.408V95.2a1.981,1.981,0,0,0,1.967,1.976h11.1v.408a.759.759,0,0,1-.779.779H178.37a.759.759,0,0,1-.779-.779V83.112a.759.759,0,0,1,.779-.779Zm3.321,0a.594.594,0,1,0,.056,1.187h5.344a.594.594,0,1,0,0-1.187h-5.4Zm0,3.562a.594.594,0,1,0,.056,1.187H191.84a.594.594,0,1,0,0-1.187H181.691Zm0,3.562a.594.594,0,0,0,.056,1.188H191.84a.594.594,0,1,0,0-1.188H181.691Zm0,3.562a.594.594,0,0,0,.056,1.188H191.84a.594.594,0,1,0,0-1.188H181.691Z" transform="translate(-176.403 -78.164)" fill="#1c00db"/>
</svg>
