<svg xmlns="http://www.w3.org/2000/svg" width="18.412" height="17.337" viewBox="0 0 18.412 17.337">
  <g id="Group_22240" data-name="Group 22240" transform="translate(-13553.684 -408.749)">
    <path id="Path_53643" data-name="Path 53643" d="M107.432,35.629H91.353A1.068,1.068,0,0,0,90.286,36.7V47.4a1.069,1.069,0,0,0,1.067,1.067h8.818a1.053,1.053,0,0,0,.667.537L99.477,51.42a.213.213,0,0,0,.258.306l1.276-.455.267,1.324a.214.214,0,0,0,.176.169l.033,0a.213.213,0,0,0,.186-.109l1.355-2.405a.664.664,0,0,0,.32.006l1.354,2.4a.214.214,0,0,0,.186.109l.033,0a.214.214,0,0,0,.176-.169l.267-1.324,1.276.455a.213.213,0,0,0,.258-.306l-1.356-2.406c.221-.131.532-.214.675-.549h1.216A1.069,1.069,0,0,0,108.5,47.4V36.7a1.069,1.069,0,0,0-1.067-1.067ZM93.545,46.616a1.639,1.639,0,0,0-1.409-1.409v-6.32a1.639,1.639,0,0,0,1.409-1.409h11.7a1.639,1.639,0,0,0,1.409,1.409v6.319a1.643,1.643,0,0,0-.371.094c-.128-.59-.837-.528-.956-.937a.906.906,0,0,0-1.1-.614.508.508,0,0,1-.435-.143.9.9,0,0,0-1.219.019.5.5,0,0,1-.492.111.9.9,0,0,0-1.024.629.468.468,0,0,1-.321.319.9.9,0,0,0-.628,1.036c.082.555-.2.359-.326.9Zm8.038,5.331-.2-1a.214.214,0,0,0-.1-.144.216.216,0,0,0-.105-.028.212.212,0,0,0-.072.012l-.97.346L101.1,49.4a.832.832,0,0,0,.838.514c.288-.006.317-.131.7.157Zm3.693-1.161a.213.213,0,0,0-.281.159l-.2,1-1.056-1.873c.407-.307.382-.155.717-.155a.954.954,0,0,0,.82-.514l.973,1.726Zm-.29-1.8c-.1.183-.162.589-.673.494-.794-.154-.913.721-1.454.225-.661-.618-1,.255-1.441-.651-.3-.694-1.027-.365-.889-1.094a.9.9,0,0,0-.228-.809.474.474,0,0,1,0-.655,1.019,1.019,0,0,0,.208-.937c0-.615.729-.322.947-1.067a.472.472,0,0,1,.545-.33.916.916,0,0,0,.853-.22.47.47,0,0,1,.656,0,.913.913,0,0,0,.856.214.482.482,0,0,1,.543.333c.224.77,1.093.472.935,1.182a.9.9,0,0,0,.239.842.491.491,0,0,1-.017.641.9.9,0,0,0-.221.83c.1.682-.545.419-.863,1Zm3.086-1.584a.641.641,0,0,1-.64.64h-1.149c0-.038-.005-.076-.012-.12-.057-.392.082-.415.107-.474l0,0a.905.905,0,0,0-.017-1.257.466.466,0,0,1-.1-.4c.472-.268.815-.051.815-.375V38.688a.213.213,0,0,0-.213-.213,1.211,1.211,0,0,1-1.209-1.209.213.213,0,0,0-.213-.213H93.345a.213.213,0,0,0-.213.213,1.211,1.211,0,0,1-1.209,1.209.213.213,0,0,0-.213.213v6.719a.213.213,0,0,0,.213.213,1.211,1.211,0,0,1,1.209,1.209.213.213,0,0,0,.213.213h6.432c.112.444.409.424.333.836a1.316,1.316,0,0,0-.02.16H91.353a.641.641,0,0,1-.64-.64V36.7a.641.641,0,0,1,.64-.64h16.078a.641.641,0,0,1,.64.64Z" transform="translate(13463.497 373.22)" fill="#ff5364" stroke="#ff5364" stroke-width="0.2"/>
    <path id="Path_53644" data-name="Path 53644" d="M192.007,140.585h10.667a.213.213,0,1,0,0-.427H192.007a.213.213,0,1,0,0,.427Z" transform="translate(13365.548 272.355)" fill="#547580" stroke="#547580" stroke-width="0.2"/>
    <path id="Path_53645" data-name="Path 53645" d="M202.892,183.238a.213.213,0,0,0-.213-.213H192.012a.213.213,0,1,0,0,.427h10.667A.213.213,0,0,0,202.892,183.238Z" transform="translate(13365.544 230.993)" fill="#547580" stroke="#547580" stroke-width="0.2"/>
    <path id="Path_53646" data-name="Path 53646" d="M259.81,226.087a.213.213,0,0,0-.213-.213h-6.375a.213.213,0,0,0,0,.427H259.6A.213.213,0,0,0,259.81,226.087Z" transform="translate(13306.48 189.645)" fill="#547580" stroke="#547580" stroke-width="0.2"/>
    <path id="Path_53647" data-name="Path 53647" d="M401.546,296.12a2.058,2.058,0,1,0,2.058,2.058A2.062,2.062,0,0,0,401.546,296.12Zm0,3.689a1.631,1.631,0,1,1,1.631-1.631A1.634,1.634,0,0,1,401.546,299.809Z" transform="translate(13165.14 121.862)" fill="#f3d55b" stroke="#f3d55b" stroke-width="0.2"/>
  </g>
</svg>
