<svg xmlns="http://www.w3.org/2000/svg" width="26.754" height="20.938" viewBox="0 0 26.754 20.938">
  <path id="noun-courses-4026107" d="M32.241,19.591a.779.779,0,0,1,0,1.119.85.85,0,0,1-1.16,0,.779.779,0,0,1,0-1.119.878.878,0,0,1,1.16,0ZM20.747.106a.886.886,0,0,1,.84,0L34.111,6.891a.8.8,0,0,1,0,1.425l-1.749.946,0,.056v8.2a.857.857,0,0,1-1.7.111l-.008-.111,0-7.334-1.641.889v5.907a.736.736,0,0,1-.429.662,17.421,17.421,0,0,1-14.84,0,.742.742,0,0,1-.422-.558l-.008-.1V11.076L8.224,8.317A.8.8,0,0,1,8.116,6.96l.108-.069Zm6.727,11.806L21.588,15.1a.886.886,0,0,1-.84,0L14.86,11.912v4.6l.375.16a15.841,15.841,0,0,0,11.867,0l.374-.16ZM21.167,1.758,10.379,7.6l10.788,5.845,7.78-4.215L22.489,6.8a.812.812,0,0,1-.518-.955l.035-.106a.863.863,0,0,1,1-.5l.111.034,7.749,2.918,1.092-.59Z" transform="translate(-7.791)"/>
</svg>
