<svg xmlns="http://www.w3.org/2000/svg" width="25.36" height="19.303" viewBox="0 0 25.36 19.303">
  <g id="Group_21870" data-name="Group 21870" transform="translate(4518.138 13334.791)">
    <path id="Path_53311" data-name="Path 53311" d="M267.322,188.218a2.727,2.727,0,0,0-1.939-.618,3,3,0,0,0-1.883.562,1.943,1.943,0,0,0-.45.506.779.779,0,0,0,.674,1.152h.056a.828.828,0,0,0,.7-.421.852.852,0,0,1,.9-.506.938.938,0,0,1,.759.281,1.151,1.151,0,0,1,.253.787,1.535,1.535,0,0,1-.225.815,2.852,2.852,0,0,1-.618.7,3.79,3.79,0,0,0-.9.871.763.763,0,0,0,.674,1.124h.028a.8.8,0,0,0,.759-.618c0-.028.028-.084.028-.112a1.217,1.217,0,0,1,.45-.506,4.354,4.354,0,0,0,1.04-.984,2.334,2.334,0,0,0,.393-1.293,2.363,2.363,0,0,0-.7-1.742Z" transform="translate(-4772.795 -13519.165)" stroke="#000" stroke-width="0.1"/>
    <path id="Path_53312" data-name="Path 53312" d="M295.128,320.606a.843.843,0,1,1-.843-.843.843.843,0,0,1,.843.843" transform="translate(-4801.752 -13644.696)" stroke="#000" stroke-width="0.1"/>
    <path id="Path_53313" data-name="Path 53313" d="M122.021,126.118h-.365a2.112,2.112,0,0,0-1.77-.955h-.337a2.446,2.446,0,0,0-1.826-.843H100.947a2.386,2.386,0,0,0-2.388,2.388v9.722a2.386,2.386,0,0,0,2.388,2.388H110.3l4.777,4.636v-4.636h2.613a2.444,2.444,0,0,0,1.826-.843h.366a2.183,2.183,0,0,0,1.77-.955h.365a1.811,1.811,0,0,0,1.8-1.8v-7.305a1.811,1.811,0,0,0-1.8-1.8ZM117.694,138h-2.613a.828.828,0,0,0-.843.843v2.641l-3.344-3.231a.936.936,0,0,0-.59-.253h-9.357a1.541,1.541,0,0,1-1.545-1.545v-9.722a1.541,1.541,0,0,1,1.545-1.545h16.746a1.541,1.541,0,0,1,1.545,1.545v9.722A1.507,1.507,0,0,1,117.694,138Zm3.456-2.107A1.258,1.258,0,0,1,120,137.161a2.823,2.823,0,0,0,.112-.7v-9.722a1.941,1.941,0,0,0-.112-.7,1.259,1.259,0,0,1,1.152,1.264Zm1.826-.646a.947.947,0,0,1-.955.955h-.056a1.371,1.371,0,0,0,.028-.337V127.3a1.371,1.371,0,0,0-.028-.337h.056a.947.947,0,0,1,.955.955Z" transform="translate(-4616.647 -13459.061)" stroke="#000" stroke-width="0.1"/>
  </g>
</svg>
