<svg xmlns="http://www.w3.org/2000/svg" width="22.424" height="16.986" viewBox="0 0 22.424 16.986">
  <g id="Group_10154" data-name="Group 10154" transform="translate(4518.088 13334.741)">
    <path id="Path_53311" data-name="Path 53311" d="M266.831,188.149a2.421,2.421,0,0,0-1.721-.549,2.666,2.666,0,0,0-1.671.5,1.725,1.725,0,0,0-.4.449.691.691,0,0,0,.6,1.023h.05a.735.735,0,0,0,.624-.374.756.756,0,0,1,.8-.449.832.832,0,0,1,.673.249,1.022,1.022,0,0,1,.224.7,1.363,1.363,0,0,1-.2.723,2.532,2.532,0,0,1-.549.624,3.365,3.365,0,0,0-.8.773.677.677,0,0,0,.6,1h.025a.713.713,0,0,0,.673-.549c0-.025.025-.075.025-.1a1.08,1.08,0,0,1,.4-.449,3.864,3.864,0,0,0,.923-.873,2.072,2.072,0,0,0,.349-1.147,2.1,2.1,0,0,0-.624-1.546Z" transform="translate(-4773.721 -13519.521)"/>
    <path id="Path_53312" data-name="Path 53312" d="M294.939,320.511a.748.748,0,1,1-.748-.748.748.748,0,0,1,.748.748" transform="translate(-4802.85 -13645.798)"/>
    <path id="Path_53313" data-name="Path 53313" d="M119.386,125.916h-.324a1.875,1.875,0,0,0-1.571-.848h-.3a2.171,2.171,0,0,0-1.621-.748H100.679a2.118,2.118,0,0,0-2.12,2.12v8.63a2.118,2.118,0,0,0,2.12,2.12h8.306l4.24,4.115v-4.115h2.32a2.17,2.17,0,0,0,1.621-.748h.324a1.938,1.938,0,0,0,1.571-.848h.324a1.607,1.607,0,0,0,1.6-1.6v-6.485a1.607,1.607,0,0,0-1.6-1.6Zm-3.841,10.551h-2.32a.735.735,0,0,0-.748.748v2.345l-2.968-2.868a.831.831,0,0,0-.524-.224h-8.306a1.368,1.368,0,0,1-1.372-1.372v-8.63a1.368,1.368,0,0,1,1.372-1.372h14.866a1.368,1.368,0,0,1,1.372,1.372v8.63a1.337,1.337,0,0,1-1.372,1.372Zm3.068-1.871a1.117,1.117,0,0,1-1.023,1.122,2.506,2.506,0,0,0,.1-.624v-8.63a1.723,1.723,0,0,0-.1-.624,1.117,1.117,0,0,1,1.023,1.122Zm1.621-.574a.841.841,0,0,1-.848.848h-.05a1.217,1.217,0,0,0,.025-.3v-7.608a1.217,1.217,0,0,0-.025-.3h.05a.841.841,0,0,1,.848.848Z" transform="translate(-4616.647 -13459.061)"/>
  </g>
</svg>
